<?xml version="1.0" standalone="no"?>
<!DOCTYPE svg PUBLIC "-//W3C//DTD SVG 20010904//EN"
 "http://www.w3.org/TR/2001/REC-SVG-20010904/DTD/svg10.dtd">
<svg version="1.0" xmlns="http://www.w3.org/2000/svg"
 width="944.000000pt" height="944.000000pt" viewBox="0 0 944.000000 944.000000"
 preserveAspectRatio="xMidYMid meet">
<metadata>
Created by potrace 1.14, written by Peter Selinger 2001-2017
</metadata>
<g transform="translate(0.000000,944.000000) scale(0.100000,-0.100000)"
fill="#000000" stroke="none">
<path d="M4545 9150 c-86 -22 -154 -48 -177 -68 -10 -8 -18 -11 -18 -6 0 5 -4
4 -8 -1 -4 -6 -27 -23 -52 -39 -142 -92 -285 -314 -303 -469 l-3 -32 -75 -1
c-100 -1 -126 -9 -144 -44 -20 -38 -19 -72 3 -97 28 -33 54 -41 122 -39 98 3
90 23 76 -185 -4 -47 -8 -96 -11 -110 -2 -13 -6 -46 -10 -74 -3 -27 -8 -66
-11 -85 -6 -40 -71 -307 -81 -330 -3 -8 -7 -21 -9 -29 -14 -69 -164 -392 -216
-465 -5 -6 -32 -45 -61 -86 -29 -41 -62 -86 -72 -99 -39 -47 -161 -167 -209
-206 l-49 -40 -119 -1 c-127 -1 -158 -10 -177 -51 -17 -37 -13 -69 12 -99 21
-25 31 -27 103 -30 43 -1 86 -3 94 -3 14 -1 16 -25 15 -168 l0 -168 -85 -2
c-47 -1 -88 -2 -91 -2 -4 -1 -18 -13 -33 -27 -29 -29 -32 -51 -15 -99 14 -37
47 -53 116 -53 26 0 62 -1 79 -1 l31 -1 0 -460 c0 -253 -4 -460 -9 -460 -4 0
-8 3 -8 8 0 6 -337 552 -357 578 -4 5 -14 20 -20 32 -7 12 -19 32 -25 44 -7
12 -16 27 -21 32 -27 39 -77 116 -77 121 0 3 -26 45 -57 93 -31 48 -57 89 -58
92 0 3 -16 30 -36 60 -20 30 -54 83 -75 118 -21 35 -46 74 -54 87 -8 13 -42
68 -75 122 -33 54 -63 100 -67 101 -5 2 -8 8 -8 12 0 5 -47 84 -105 175 -58
91 -105 170 -105 175 0 6 -4 10 -10 10 -5 0 -10 4 -10 10 0 8 -72 126 -114
186 -23 33 -65 44 -106 28 -30 -12 -51 -40 -135 -176 -55 -88 -107 -173 -115
-187 -8 -14 -17 -28 -21 -31 -4 -4 -105 -166 -152 -245 -7 -11 -15 -22 -18
-25 -3 -3 -8 -10 -10 -15 -5 -12 -75 -126 -129 -210 -21 -33 -48 -78 -60 -100
-12 -22 -26 -42 -30 -45 -4 -3 -16 -20 -26 -39 -10 -18 -23 -41 -29 -50 -5 -9
-28 -45 -49 -81 -22 -36 -44 -66 -48 -68 -4 -2 -8 -8 -8 -12 0 -12 -83 -144
-92 -148 -5 -2 -8 -8 -8 -13 0 -5 -17 -35 -37 -67 -63 -99 -79 -123 -174 -277
-50 -82 -107 -172 -124 -200 -18 -27 -72 -114 -121 -191 l-88 -142 -103 -1
c-125 -2 -149 -10 -169 -56 -26 -64 18 -126 90 -125 25 0 80 -1 116 -3 l25 -2
0 -2100 0 -2100 -95 -5 c-52 -3 -101 -9 -109 -14 -7 -5 -19 -24 -27 -42 -12
-29 -12 -39 0 -69 8 -19 26 -39 38 -44 13 -5 82 -10 153 -11 356 -6 9105 -2
9129 4 58 15 84 66 61 122 -19 45 -41 54 -139 54 -75 0 -105 7 -91 22 3 3 5
947 5 2098 l0 2093 34 -6 c19 -3 37 -3 40 1 4 3 28 5 55 3 42 -2 52 1 79 28
25 26 29 36 25 68 -3 22 -15 47 -30 60 -21 20 -34 23 -114 23 l-89 0 -1 308
c0 169 -2 316 -4 326 -8 42 -42 61 -113 63 -37 1 -83 2 -102 3 -19 0 -73 0
-120 0 -47 -1 -89 -1 -95 0 -5 1 -14 1 -20 0 -18 -3 -120 2 -125 6 -2 3 -5
135 -5 294 0 269 -2 290 -19 309 -29 32 -60 36 -239 35 l-162 -1 0 211 c1 116
-3 225 -7 242 -14 52 -49 68 -152 68 l-90 1 -2 200 c-1 110 -5 210 -9 221 -13
41 -47 47 -275 49 -233 2 -267 -4 -288 -50 -7 -14 -11 -94 -11 -197 0 -95 -1
-177 -2 -183 -1 -5 -1 -17 0 -26 2 -14 -10 -16 -76 -15 -88 2 -123 -6 -150
-36 -16 -18 -18 -41 -20 -232 -1 -116 -2 -221 -2 -232 -1 -21 -4 -21 -163 -20
-178 2 -208 -3 -238 -41 -19 -24 -20 -41 -20 -314 l0 -289 -38 2 c-22 0 -44
-2 -50 -6 -6 -3 -13 -2 -16 3 -3 5 -21 6 -39 2 -18 -5 -41 -5 -52 -1 -11 4
-29 4 -40 1 -11 -4 -26 -6 -32 -5 -7 1 -40 2 -73 3 l-60 1 0 230 0 230 38 1
c20 0 58 1 83 1 48 -1 100 27 108 58 9 37 0 76 -25 98 -28 24 -27 24 -131 24
l-73 0 0 172 0 171 78 -2 c110 -3 133 9 156 80 9 27 -21 77 -53 90 -17 7 -73
12 -137 11 -102 -1 -111 0 -144 24 -19 15 -40 31 -46 37 -6 5 -31 28 -55 51
-182 168 -357 446 -459 729 -12 33 -24 67 -26 75 -2 8 -18 67 -35 130 -17 63
-35 140 -40 170 -5 30 -11 65 -13 77 -3 12 -7 49 -11 82 -3 33 -8 69 -10 80
-2 11 -7 73 -10 138 l-7 118 79 -1 c89 -2 127 14 142 58 13 37 6 67 -23 96
-21 22 -34 25 -111 26 l-88 2 -19 75 c-21 86 -86 222 -132 276 -109 130 -248
222 -383 254 -27 6 -55 13 -63 17 -8 3 -67 7 -130 8 -84 1 -134 -3 -185 -16z
m300 -174 c155 -33 302 -148 377 -295 22 -43 50 -132 43 -139 -2 -3 -249 -5
-547 -5 l-543 0 2 31 c2 17 8 43 15 59 6 15 12 31 12 34 1 3 18 33 39 67 72
116 209 215 342 246 59 13 202 15 260 2z m426 -625 c3 -1 6 -13 6 -28 0 -39
12 -200 18 -248 6 -51 17 -133 22 -165 2 -14 6 -38 8 -55 6 -37 13 -70 15 -70
1 0 3 -11 5 -25 1 -14 10 -52 19 -85 19 -70 26 -95 30 -112 1 -7 5 -16 9 -19
4 -4 7 -14 7 -23 0 -34 110 -303 160 -391 8 -14 14 -27 15 -30 0 -3 16 -30 35
-60 19 -30 34 -57 35 -60 0 -5 8 -17 95 -135 44 -60 78 -100 137 -162 17 -18
31 -34 30 -34 -5 -4 -2383 -5 -2390 -2 -4 3 10 23 32 46 89 94 251 317 251
346 0 6 4 11 8 11 10 0 139 259 147 294 1 6 8 25 15 41 31 75 85 259 111 380
7 33 13 62 14 65 0 3 4 28 9 55 4 28 9 62 11 76 13 74 25 215 29 315 2 33 5
65 8 70 5 7 1067 12 1109 5z m2475 -1606 c2 -246 0 -232 30 -258 22 -19 38
-22 115 -23 49 -1 92 -4 96 -8 4 -3 6 -104 6 -224 0 -124 4 -226 10 -239 19
-42 60 -51 233 -50 88 0 165 -2 170 -5 6 -4 9 -116 8 -285 -1 -282 3 -317 38
-340 7 -4 132 -10 278 -13 l265 -5 0 -255 0 -255 -517 -1 -518 -1 -1 21 c-1
11 -2 156 -3 320 l-1 299 -27 27 c-22 23 -35 27 -81 27 -31 1 -60 4 -66 7 -5
4 -12 2 -15 -2 -3 -5 -25 -6 -48 -2 -24 3 -57 3 -74 0 -16 -4 -39 -4 -50 0
-10 4 -29 4 -41 -1 -13 -5 -25 -4 -28 2 -4 5 -11 7 -16 4 -5 -4 -41 -7 -80 -7
-59 -1 -76 -5 -98 -24 l-26 -22 -3 -325 -3 -324 -514 0 -515 -1 0 259 0 259
256 0 c284 0 307 4 320 63 3 16 6 152 6 303 1 193 4 274 12 275 6 0 89 1 183
2 239 3 229 -10 228 310 -1 139 2 207 9 208 6 1 45 2 86 3 41 1 86 5 100 10
33 9 53 55 52 115 -1 25 -2 53 -2 61 -1 55 3 276 6 281 1 3 51 5 111 4 l108
-1 1 -189z m-5807 -110 c62 -99 118 -189 124 -200 7 -10 33 -52 60 -93 26 -40
47 -75 47 -76 0 -2 99 -162 220 -356 121 -193 220 -354 220 -356 0 -3 5 -10
11 -17 18 -20 269 -428 269 -437 0 -5 4 -10 8 -12 4 -1 19 -21 32 -43 13 -22
47 -76 75 -120 29 -44 59 -94 68 -111 l16 -31 -1272 -1 c-700 0 -1281 2 -1291
5 -19 5 -19 6 -1 19 10 8 15 14 10 14 -4 0 -1 8 7 18 16 17 230 358 237 377 2
5 20 35 40 65 20 31 41 64 48 75 62 103 119 191 125 193 4 2 8 8 8 12 0 12 83
144 92 148 5 2 8 8 8 12 0 10 229 381 281 457 16 23 29 44 29 46 0 3 17 32 38
64 21 32 47 74 58 93 10 19 21 37 24 40 11 11 50 69 50 75 0 3 25 43 55 90 30
46 62 99 71 117 9 18 22 37 28 44 6 6 24 33 39 59 26 44 29 46 41 29 7 -11 63
-100 125 -199z m4147 -343 l-1 -166 -1365 0 -1365 0 -3 166 -2 167 1368 0
1369 0 -1 -167z m0 -2139 c-1 -984 -4 -1790 -7 -1793 -6 -4 -2668 -5 -2716 -1
-10 1 -13 366 -13 1791 l0 1790 1368 0 1368 0 0 -1787z m1689 905 c0 -134 -3
-248 -7 -254 -5 -7 -57 -10 -145 -10 l-138 1 -1 253 0 252 145 0 146 0 0 -242z
m-4610 -1576 c0 -613 -4 -1116 -8 -1119 -6 -3 -2270 -7 -2662 -3 l-60 0 2
1113 c0 611 2 1114 2 1117 1 3 614 5 1363 5 l1363 0 0 -1113z m5829 1098 c2
-8 4 -511 3 -1117 l0 -1103 -61 0 c-81 -1 -2523 -1 -2603 0 l-63 0 0 1118 0
1117 1360 0 c1201 0 1361 -2 1364 -15z m-5843 -2409 c14 -1 16 -41 15 -398 -1
-219 -4 -403 -8 -409 -5 -8 -20 -9 -40 -5 -56 12 -242 3 -298 -14 -8 -2 -28
-7 -45 -9 -95 -17 -297 -106 -360 -158 -5 -5 -25 -20 -44 -33 -83 -59 -203
-192 -258 -285 -59 -100 -103 -199 -120 -265 -13 -55 -23 -104 -28 -140 -4
-22 -8 -46 -10 -52 -3 -10 -42 -13 -149 -13 l-146 0 -2 684 -3 684 -24 21
c-13 12 -27 22 -30 23 -3 0 -179 2 -391 3 -409 2 -426 1 -450 -45 -7 -14 -11
-236 -11 -695 l1 -675 -155 0 c-141 0 -155 2 -156 18 -5 101 -3 1750 2 1757 5
7 465 9 1351 8 738 0 1350 -1 1359 -2z m2935 -446 c1 -387 -1 -452 -14 -467
-8 -10 -19 -18 -25 -18 -25 0 -186 -119 -254 -189 -97 -99 -95 -96 -157 -195
-74 -118 -143 -310 -149 -416 -3 -51 -4 -52 -177 -48 l-135 3 0 673 -1 673
-25 32 -26 32 -389 1 c-228 1 -401 -3 -417 -9 -55 -19 -54 -8 -55 -707 0 -355
-1 -657 -1 -672 l-1 -28 -84 0 c-95 0 -88 -7 -106 98 -50 284 -234 559 -475
710 -57 35 -217 112 -234 112 -6 0 -11 16 -11 35 0 19 -1 172 -1 340 0 168 1
347 1 398 l0 92 1368 0 1367 0 1 -450z m2905 446 c3 -1 6 -401 6 -891 l0 -890
-154 0 c-84 0 -153 3 -154 8 0 4 -2 308 -3 677 -1 369 -5 677 -9 685 -4 9 -22
23 -40 32 -28 15 -77 16 -419 15 l-388 -2 -27 -28 -28 -27 0 -678 0 -677 -83
-3 c-45 -2 -82 1 -83 5 -3 29 -11 78 -24 146 -3 16 -12 48 -20 70 -8 23 -15
50 -15 59 0 9 -5 18 -11 20 -5 2 -11 10 -13 18 -4 24 -42 102 -70 143 -14 21
-26 40 -26 44 0 11 -86 110 -149 171 -154 149 -363 252 -586 287 -50 8 -257
12 -270 6 -5 -3 -19 -6 -30 -7 -38 -4 -85 -12 -105 -19 -20 -6 -20 -3 -21 239
-1 303 -1 306 0 469 l1 132 1357 -2 c747 0 1361 -1 1364 -2z m-7514 -1163 l1
-618 -274 0 -274 0 0 613 c0 338 2 616 4 618 3 2 125 4 273 4 l268 0 2 -617z
m3514 602 c0 -20 0 -1157 0 -1192 l-1 -28 -273 0 -273 0 0 618 0 617 273 0
c239 1 273 -1 274 -15z m3509 9 c3 -4 5 -281 5 -616 l0 -608 -273 -3 c-214 -2
-272 0 -273 10 -5 61 -2 1214 3 1218 11 8 532 7 538 -1z m-5366 -443 c39 -4
78 -12 88 -17 10 -5 18 -7 18 -4 0 11 168 -57 229 -94 144 -86 268 -217 339
-358 32 -63 74 -173 66 -173 -3 0 0 -9 5 -19 6 -10 13 -42 16 -70 l5 -51 -313
2 c-306 3 -312 3 -313 23 -1 27 -21 90 -45 142 -10 24 -19 45 -19 48 0 15 -86
131 -124 167 -74 71 -206 150 -268 162 -15 2 -31 7 -35 9 -36 22 -272 26 -308
5 -19 -10 -65 -18 -65 -11 1 13 118 101 183 137 58 32 197 85 242 91 11 2 42
6 70 10 27 3 51 7 52 9 4 4 103 -1 177 -8z m3536 -1 c134 -19 276 -76 385
-153 66 -46 204 -188 232 -238 79 -140 119 -245 136 -357 l6 -37 -315 0 c-244
0 -314 3 -315 13 -4 66 -46 176 -96 255 -40 63 -120 146 -183 189 -54 37 -176
93 -184 85 -3 -3 -6 -1 -6 4 0 5 -17 10 -37 12 -20 1 -41 6 -47 10 -33 22
-290 -4 -308 -32 -5 -6 -8 -7 -8 -1 0 25 118 113 220 163 70 35 180 74 180 65
0 -3 6 -1 13 5 6 6 44 13 82 17 39 4 71 8 72 9 4 3 132 -3 173 -9z m-3975
-401 c28 -4 56 -8 64 -10 43 -8 151 -76 200 -125 57 -57 115 -156 127 -218 l7
-31 -472 0 -471 0 0 26 c0 23 41 119 65 153 48 66 176 171 209 171 8 0 17 4
20 9 6 9 48 20 111 28 22 3 42 7 43 8 2 2 13 2 25 0 12 -2 45 -7 72 -11z
m3535 1 c14 -4 32 -8 40 -9 104 -17 253 -142 308 -256 16 -36 32 -76 34 -90
l3 -25 -473 -3 -474 -2 7 32 c21 99 103 212 202 281 100 67 248 98 353 72z"/>
<path d="M4630 7955 c-137 -37 -237 -127 -281 -256 -20 -60 -21 -85 -23 -374
-1 -236 1 -317 11 -337 25 -53 41 -55 383 -53 173 0 325 4 338 9 48 16 51 41
51 368 0 315 -4 357 -45 443 -23 50 -110 137 -160 163 -89 44 -194 59 -274 37z
m175 -191 c41 -19 81 -57 103 -99 14 -25 16 -70 17 -290 l0 -260 -207 0 c-202
0 -208 0 -209 20 -2 81 2 473 4 485 31 130 174 200 292 144z"/>
<path d="M1798 5825 c-2 -2 -25 -5 -53 -8 -75 -8 -205 -65 -205 -90 0 -6 -3
-8 -6 -4 -8 7 -74 -59 -74 -73 0 -6 -4 -10 -9 -10 -12 0 -55 -92 -71 -149 -27
-101 -3 -244 57 -336 145 -222 459 -264 654 -88 270 244 140 686 -222 748 -38
7 -70 11 -71 10z m52 -190 c130 -17 230 -166 198 -294 -5 -20 -10 -40 -11 -46
-8 -29 -57 -87 -97 -113 -80 -52 -170 -59 -249 -18 -96 50 -148 144 -138 247
10 91 44 146 120 194 30 19 127 45 140 38 4 -3 21 -6 37 -8z"/>
<path d="M3689 5560 l-29 -28 0 -591 0 -590 24 -28 24 -28 400 -3 400 -2 31
29 31 29 0 111 c0 61 0 257 0 436 0 179 0 395 0 481 l0 156 -28 28 -29 28
-398 1 -398 0 -28 -29z m701 -619 l0 -467 -270 0 c-300 -1 -278 -7 -279 71 -1
105 -1 122 2 150 1 17 -1 38 -6 48 -4 9 -4 17 0 17 5 0 7 17 6 38 -3 47 -3 99
0 137 1 17 -1 38 -6 48 -4 9 -4 17 0 17 5 0 7 17 6 38 -2 33 -3 80 -2 122 0 8
0 35 0 60 -1 25 0 64 1 88 2 23 -1 42 -5 42 -4 0 -4 8 1 18 5 9 8 22 5 28 -3
8 76 11 272 11 l275 1 0 -467z"/>
<path d="M4897 5564 c-15 -14 -28 -28 -28 -32 -1 -4 -3 -267 -4 -585 -1 -628
-2 -623 54 -646 19 -8 144 -11 414 -9 l387 3 27 28 28 27 1 583 c0 634 1 624
-55 646 -16 6 -175 10 -412 10 l-386 -1 -26 -24z m693 -164 c4 -6 5 -871 1
-916 -1 -8 -83 -11 -273 -10 l-273 1 0 455 c-1 250 1 460 3 466 4 13 534 17
542 4z"/>
<path d="M3733 4022 c-12 -2 -34 -17 -48 -33 l-25 -31 0 -578 c0 -410 3 -586
11 -604 23 -49 37 -51 445 -50 208 1 388 5 399 10 25 10 39 24 48 48 4 10 7
279 8 597 0 640 2 620 -64 635 -31 7 -728 12 -774 6z m216 -186 c6 -4 11 -4
11 1 0 10 132 9 148 -1 7 -4 12 -4 12 1 0 6 189 9 258 4 9 -1 12 -101 12 -466
l0 -465 -22 -1 c-13 0 -135 -1 -273 -2 l-250 0 -2 119 c-3 175 -3 196 0 229 1
17 -1 38 -6 48 -4 9 -4 17 0 17 5 0 7 17 6 38 -3 47 -3 99 0 137 1 17 -1 38
-6 48 -4 9 -4 17 0 17 5 0 7 17 6 38 -2 33 -3 80 -2 122 0 8 -1 37 -2 64 -1
27 3 51 10 55 13 9 84 6 100 -3z"/>
<path d="M4908 4008 c-15 -10 -32 -28 -37 -41 -4 -12 -7 -285 -7 -606 l1 -583
32 -27 31 -26 390 1 c428 0 429 0 449 61 5 16 9 276 8 607 l0 578 -28 24 c-16
13 -33 25 -40 25 -7 1 -182 2 -391 3 -345 1 -381 0 -408 -16z m370 -168 c6 0
31 1 55 3 23 1 48 -2 55 -7 6 -5 12 -5 12 0 0 10 170 11 185 2 11 -7 13 -907
3 -924 -5 -7 -383 -11 -523 -5 -20 1 -20 6 -19 464 1 254 2 464 3 467 0 3 49
4 108 2 60 -1 114 -2 121 -2z"/>
<path d="M1079 4220 c-80 -25 -128 -52 -185 -106 -74 -70 -123 -159 -139 -249
-4 -24 -7 -572 -5 -1000 0 -71 3 -83 25 -109 l26 -30 401 0 401 0 29 33 c28
31 29 36 27 122 -1 49 0 91 2 93 2 3 2 39 -1 81 -3 42 -3 78 0 80 3 2 3 38 0
80 -3 42 -4 78 -2 80 4 4 2 474 -2 530 -6 67 -11 86 -36 142 -30 67 -90 143
-141 178 -24 17 -46 33 -49 36 -5 5 -32 18 -55 25 -112 37 -209 41 -296 14z
m243 -189 c54 -26 110 -83 135 -138 15 -34 17 -88 20 -510 2 -439 1 -473 -15
-474 -9 0 -133 -1 -275 -2 l-257 -2 0 455 c0 297 4 469 11 495 24 87 91 159
176 189 55 20 149 13 205 -13z"/>
<path d="M2297 4225 c-121 -33 -237 -123 -289 -223 -54 -104 -57 -134 -57
-682 0 -293 4 -518 10 -536 17 -56 23 -57 440 -58 263 -1 390 3 409 10 56 24
57 31 54 594 -1 283 -4 526 -8 539 -3 13 -11 40 -18 60 -7 20 -12 38 -13 41 0
3 -15 30 -34 60 -96 157 -315 244 -494 195z m223 -193 c75 -35 125 -91 150
-169 17 -55 21 -930 4 -947 -8 -9 -396 -14 -524 -7 -14 1 -15 56 -15 469 1
448 2 469 21 512 66 144 223 205 364 142z"/>
<path d="M6605 4216 l-30 -24 -3 -701 -2 -700 28 -32 29 -33 379 -1 c208 0
391 3 407 7 34 8 51 25 63 63 5 18 9 304 8 696 -1 712 -1 715 -50 738 -17 7
-146 11 -412 11 l-387 0 -30 -24z m695 -732 l0 -574 -22 -1 c-29 -1 -511 -1
-519 0 -4 1 -7 259 -7 575 l0 574 274 0 274 0 0 -574z"/>
<path d="M7828 4233 c-9 -2 -25 -16 -34 -31 -17 -25 -18 -71 -19 -707 -1 -391
3 -692 8 -708 20 -60 22 -60 435 -61 208 -1 389 2 404 7 14 4 34 17 45 29 17
19 18 54 20 707 1 461 -2 695 -9 714 -21 56 -31 57 -450 56 -211 -1 -391 -3
-400 -6z m677 -746 c0 -313 -2 -572 -5 -575 -7 -9 -533 -9 -540 0 -4 5 -5
1114 -1 1140 1 4 124 6 274 5 l272 -2 0 -568z"/>
</g>
</svg>
