<svg width="20" height="20" viewBox="0 0 20 20" fill="none" xmlns="http://www.w3.org/2000/svg">
<path fill-rule="evenodd" clip-rule="evenodd" d="M7.17528 10.1125C7.17528 8.55563 8.44296 7.28857 9.99984 7.28857C11.5573 7.28857 12.8244 8.55563 12.8244 10.1125C12.8244 11.67 11.5573 12.9377 9.99984 12.9377C8.44296 12.9377 7.17528 11.67 7.17528 10.1125ZM2.57072 5.40761C2.57072 3.90558 3.79291 2.68339 5.29494 2.68339H14.7054C16.2074 2.68339 17.4296 3.90558 17.4296 5.40761V14.818C17.4296 16.3201 16.2074 17.5422 14.7054 17.5422H5.29494C3.79291 17.5422 2.57072 16.3201 2.57072 14.818V5.40761ZM5.10859 10.1125C5.10859 12.8099 7.30304 15.0044 9.99984 15.0044C12.6973 15.0044 14.8917 12.8099 14.8917 10.1125C14.8917 7.41571 12.6973 5.22126 9.99984 5.22126C7.30304 5.22126 5.10859 7.41571 5.10859 10.1125ZM13.8914 5.07542C13.8914 5.71362 14.4106 6.23279 15.0488 6.23279C15.687 6.23279 16.2061 5.71362 16.2061 5.07542C16.2061 4.43721 15.687 3.91804 15.0488 3.91804C14.4106 3.91804 13.8914 4.43721 13.8914 5.07542ZM14.7054 19.6089C17.3473 19.6089 19.4963 17.46 19.4963 14.818V5.40761C19.4963 2.76566 17.3473 0.616699 14.7054 0.616699H5.29494C2.65299 0.616699 0.504028 2.76566 0.504028 5.40761V14.818C0.504028 17.46 2.65299 19.6089 5.29494 19.6089H14.7054Z" fill="#323232"/>
</svg>
