<svg width="13" height="13" viewBox="0 0 13 13" fill="none" xmlns="http://www.w3.org/2000/svg">
<path d="M12.0356 8.8833C11.1804 8.8833 10.3531 8.74425 9.58133 8.49396C9.338 8.41053 9.06685 8.47311 8.87913 8.66082L7.78759 10.0305C5.82004 9.09188 3.97763 7.31899 2.99733 5.28191L4.35306 4.1278C4.54078 3.93313 4.5964 3.66198 4.51992 3.41865C4.26268 2.64692 4.13058 1.81958 4.13058 0.964419C4.13058 0.588985 3.81772 0.276123 3.44229 0.276123H1.03673C0.661293 0.276123 0.209381 0.442983 0.209381 0.964419C0.209381 7.42328 5.58365 12.7906 12.0356 12.7906C12.5292 12.7906 12.7239 12.3526 12.7239 11.9702V9.5716C12.7239 9.19616 12.411 8.8833 12.0356 8.8833Z" fill="#489B9B"/>
</svg>
