<svg width="17" height="17" viewBox="0 0 17 17" fill="none" xmlns="http://www.w3.org/2000/svg">
<g clip-path="url(#clip0_206_1290)">
<path d="M13.8695 10.309C13.0461 10.309 12.2495 10.1751 11.5065 9.93411C11.2722 9.85378 11.0111 9.91403 10.8304 10.0948L9.77944 11.4135C7.88502 10.5098 6.11109 8.80281 5.16723 6.84145L6.47257 5.73024C6.65331 5.5428 6.70686 5.28174 6.63323 5.04744C6.38555 4.3044 6.25836 3.50781 6.25836 2.68444C6.25836 2.32296 5.95713 2.02173 5.59565 2.02173H3.2795C2.91802 2.02173 2.48291 2.18239 2.48291 2.68444C2.48291 8.90322 7.65742 14.071 13.8695 14.071C14.3448 14.071 14.5322 13.6493 14.5322 13.2811V10.9717C14.5322 10.6102 14.231 10.309 13.8695 10.309Z" fill="white"/>
</g>
<defs>
<clipPath id="clip0_206_1290">
<rect width="16.0657" height="16.0657" fill="white" transform="translate(0.474731 0.0136719)"/>
</clipPath>
</defs>
</svg>
