<svg width="23" height="20" viewBox="0 0 23 20" fill="none" xmlns="http://www.w3.org/2000/svg">
<path fill-rule="evenodd" clip-rule="evenodd" d="M18.9424 18.8585L22.4151 2.25553C22.5852 1.4422 21.7851 0.764628 21.0109 1.06631L0.670829 8.99262C0.0120103 9.24938 0.0519895 10.1948 0.730097 10.395L5.89873 11.9213L7.82767 18.042C8.02916 18.6813 8.83935 18.8752 9.30836 18.3963L11.9807 15.6678L17.2239 19.5165C17.8656 19.9875 18.7794 19.6376 18.9424 18.8585ZM18.1677 4.35688L7.01084 11.2765C6.81441 11.3983 6.72504 11.6375 6.79359 11.8583L8.29016 16.6807C8.3216 16.782 8.46923 16.768 8.48111 16.6626L8.84486 13.429C8.85888 13.3041 8.91881 13.1888 9.01299 13.1055L18.4608 4.75086C18.687 4.5509 18.4243 4.1977 18.1677 4.35688Z" fill="#323232"/>
</svg>
