<svg width="24" height="14" viewBox="0 0 24 14" fill="none" xmlns="http://www.w3.org/2000/svg">
<path d="M13.6469 3.68812C13.6469 4.43277 13.625 5.17742 13.6469 5.92207C13.6469 6.11918 13.7345 6.3163 13.8221 6.49151C14.0192 6.82003 14.304 6.84193 14.6106 6.60101C15.0267 6.25059 15.3552 5.83446 15.6618 5.39643C16.4503 4.23566 17.1073 3.00918 17.633 1.69509C17.6549 1.67319 17.6549 1.62939 17.6768 1.60748C17.8739 1.12565 18.0053 1.05995 18.5309 1.05995C19.7355 1.05995 20.962 1.03805 22.1666 1.01614C22.3637 1.01614 22.5608 1.03805 22.7579 1.10375C23.0426 1.19136 23.174 1.38847 23.1083 1.69509C23.0207 2.04551 22.8893 2.39594 22.736 2.70256C22.1885 3.75383 21.4657 4.65178 20.7649 5.59355C20.3926 6.09728 20.0202 6.57911 19.6698 7.10475C19.2975 7.67419 19.3413 8.06841 19.8012 8.55024C20.4145 9.16348 21.0496 9.75482 21.6409 10.39C22.1009 10.8937 22.4951 11.4193 22.8893 11.9669C22.9988 12.1202 23.0645 12.3611 23.1083 12.5582C23.174 12.9524 23.0207 13.1934 22.6265 13.3029C22.4294 13.3467 22.2323 13.3686 22.0133 13.3905C20.962 13.4124 19.9107 13.4562 18.8814 13.4562C18.3338 13.4562 17.852 13.2591 17.4578 12.8867C16.9321 12.4049 16.4503 11.8574 15.9247 11.3317C15.7057 11.1127 15.4866 10.8937 15.2457 10.6747C15.18 10.609 15.0705 10.5433 14.9829 10.4995C14.6982 10.3462 14.5011 10.3681 14.2602 10.5871C13.9535 10.8718 13.8002 11.2441 13.7564 11.6383C13.7126 11.9669 13.6907 12.3173 13.6688 12.6458C13.625 13.0838 13.406 13.3467 12.9899 13.3686C11.5006 13.4343 10.0113 13.4781 8.63148 12.7772C7.3612 12.1202 6.20042 11.2879 5.30246 10.1491C3.28753 7.71799 1.77633 5.02411 0.527947 2.19882C0.462243 2.04551 0.374637 1.8703 0.330834 1.71699C0.221327 1.38847 0.374637 1.16945 0.703159 1.08185C0.856469 1.05995 1.00978 1.03805 1.16309 1.03805C2.14865 1.03805 3.13422 1.01614 4.11978 1.01614C4.64542 1.01614 4.95204 1.21326 5.17105 1.69509C5.69669 2.94347 6.33183 4.12615 6.98887 5.30883C7.25169 5.79066 7.58021 6.25059 8.01824 6.60101C8.21536 6.75432 8.43437 6.86383 8.69719 6.77623C8.78479 6.75432 8.8505 6.68862 8.9162 6.62292C9.11331 6.3163 9.15712 5.98777 9.22282 5.63735C9.33233 4.78319 9.37613 3.95094 9.26663 3.09678C9.24472 2.81206 9.17902 2.54925 9.11331 2.26453C9.00381 1.76079 8.63148 1.51988 8.17155 1.41037C8.08395 1.38847 7.97444 1.34467 7.88683 1.30086C7.95254 1.21326 7.99634 1.10375 8.06205 1.01614C8.28106 0.775228 8.58768 0.643819 8.9162 0.578115C10.1208 0.381001 11.3035 0.402904 12.508 0.512411C12.6394 0.534313 12.749 0.556213 12.8804 0.578115C13.4279 0.731425 13.5812 0.906637 13.6688 1.54178C13.7345 2.02361 13.6688 2.52735 13.6688 3.00918C13.6469 3.25009 13.6469 3.46911 13.6469 3.68812Z" fill="#323232"/>
</svg>
