<svg width="22" height="21" viewBox="0 0 22 21" fill="none" xmlns="http://www.w3.org/2000/svg">
<path d="M15.5624 12.0643C15.5216 12.0447 13.993 11.292 13.7214 11.1943C13.6105 11.1544 13.4917 11.1156 13.3653 11.1156C13.1589 11.1156 12.9855 11.2184 12.8505 11.4205C12.6978 11.6474 12.2355 12.1878 12.0927 12.3492C12.074 12.3705 12.0486 12.396 12.0333 12.396C12.0197 12.396 11.7831 12.2985 11.7115 12.2674C10.0717 11.5551 8.82706 9.84225 8.65639 9.5534C8.63202 9.51188 8.631 9.49302 8.63079 9.49302C8.63678 9.47103 8.69193 9.41575 8.72038 9.38723C8.80364 9.30486 8.89384 9.19627 8.98112 9.09123C9.02244 9.04147 9.06383 8.99164 9.10447 8.94466C9.23109 8.79734 9.28746 8.68298 9.35282 8.5505L9.38706 8.48167C9.54663 8.16464 9.41034 7.8971 9.36629 7.81071C9.33015 7.73841 8.68471 6.18068 8.61609 6.01702C8.45107 5.62211 8.23302 5.43823 7.93001 5.43823C7.9019 5.43823 7.93001 5.43823 7.8121 5.4432C7.66853 5.44926 6.88667 5.55219 6.54097 5.77011C6.17438 6.00123 5.5542 6.73795 5.5542 8.03359C5.5542 9.19968 6.29419 10.3007 6.61191 10.7194C6.61981 10.73 6.63431 10.7514 6.65534 10.7822C7.87208 12.5591 9.3889 13.876 10.9265 14.4903C12.4069 15.0816 13.1079 15.1499 13.5064 15.1499C13.5065 15.1499 13.5065 15.1499 13.5065 15.1499C13.6739 15.1499 13.808 15.1368 13.9262 15.1251L14.0012 15.118C14.5126 15.0727 15.6364 14.4903 15.8921 13.78C16.0934 13.2204 16.1465 12.6091 16.0126 12.3872C15.9208 12.2364 15.7627 12.1605 15.5624 12.0643Z" fill="#323232"/>
<path d="M10.7175 0.0161133C5.03885 0.0161133 0.418882 4.60136 0.418882 10.2374C0.418882 12.0603 0.906721 13.8446 1.83086 15.4063L0.0620239 20.624C0.0290747 20.7213 0.0535824 20.8289 0.12554 20.9021C0.177482 20.9552 0.247942 20.9838 0.319899 20.9838C0.34747 20.9838 0.375245 20.9796 0.40234 20.971L5.84304 19.2421C7.33188 20.0376 9.0146 20.4575 10.7176 20.4575C16.3958 20.4575 21.0152 15.8728 21.0152 10.2374C21.0152 4.60136 16.3958 0.0161133 10.7175 0.0161133ZM10.7175 18.3284C9.11508 18.3284 7.563 17.8656 6.22883 16.9902C6.18397 16.9607 6.13189 16.9456 6.07947 16.9456C6.05176 16.9456 6.02399 16.9498 5.99696 16.9584L3.2715 17.8247L4.15133 15.229C4.17978 15.145 4.16556 15.0524 4.11314 14.9808C3.09716 13.5925 2.5601 11.9524 2.5601 10.2374C2.5601 5.77541 6.2195 2.14528 10.7175 2.14528C15.2149 2.14528 18.8739 5.77541 18.8739 10.2374C18.874 14.6988 15.215 18.3284 10.7175 18.3284Z" fill="#323232"/>
</svg>
